<?xml version="1.0" encoding="UTF-8"?> <svg xmlns="http://www.w3.org/2000/svg" width="280" height="48.305" viewBox="0 0 280 48.305"><g id="Grupo_203" data-name="Grupo 203" transform="translate(-157 -45)"><g id="Logo_UMAI" data-name="Logo UMAI" transform="translate(157 45)"><g id="Logo_UMAI-2" data-name="Logo UMAI" transform="translate(140 24.153)"><g id="Artwork_1" data-name="Artwork 1" transform="translate(-140 -24.153)"><g id="Grupo_12" data-name="Grupo 12" transform="translate(171.996 14.062)"><path id="Trazado_340" data-name="Trazado 340" d="M98.467,20.916a5.178,5.178,0,0,1-3.884-1.479A5.918,5.918,0,0,1,93.1,15.182V7.6h1.48v7.582a4.808,4.808,0,0,0,1.11,3.329,4.254,4.254,0,0,0,5.918,0,4.808,4.808,0,0,0,1.11-3.329V7.6H104.2v7.582a5.918,5.918,0,0,1-1.479,4.254,5.178,5.178,0,0,1-4.254,1.48Z" transform="translate(-92.919 -7.6)" fill="#fff"></path><path id="Trazado_341" data-name="Trazado 341" d="M102.095,12.849v6.1H100.8V9.89h1.295v1.48a4.623,4.623,0,0,1,3.7-1.664,3.329,3.329,0,0,1,2.589.925,4.069,4.069,0,0,1,.925,2.774v5.548h-1.295V13.774q0-2.774-2.589-2.774a3.329,3.329,0,0,0-1.849.555,4.069,4.069,0,0,0-1.48,1.295Z" transform="translate(-86.375 -5.822)" fill="#fff"></path><path id="Trazado_342" data-name="Trazado 342" d="M107.321,9.264a.925.925,0,0,1,0-1.295l.74-.37.74.37a.925.925,0,0,1,0,1.295h-1.48Zm1.295,11.466h-1.295V11.669h1.295Z" transform="translate(-81.06 -7.6)" fill="#fff"></path><path id="Trazado_343" data-name="Trazado 343" d="M114.848,19.047h-1.295L109.3,9.8h1.48l3.329,7.4,3.329-7.4h1.48Z" transform="translate(-79.155 -5.731)" fill="#fff"></path><path id="Trazado_344" data-name="Trazado 344" d="M120.4,19.134a4.993,4.993,0,0,1-3.514-1.295,4.439,4.439,0,0,1-1.48-3.514A4.808,4.808,0,0,1,116.7,11,4.438,4.438,0,0,1,120.026,9.7l1.849.37a3.7,3.7,0,0,1,1.295,1.11,5.548,5.548,0,0,1,.74,1.48,5.548,5.548,0,0,1,.185,1.664v.37h-7.4a3.144,3.144,0,0,0,1.11,2.4,4.069,4.069,0,0,0,2.774.925,5.363,5.363,0,0,0,2.959-.925v1.295a4.993,4.993,0,0,1-3.144.74Zm-3.514-5.548h6.1a3.144,3.144,0,0,0-.74-1.849,2.589,2.589,0,0,0-2.219-.925,3.144,3.144,0,0,0-2.219.74,2.959,2.959,0,0,0-.925,2.034Z" transform="translate(-73.976 -5.818)" fill="#fff"></path><path id="Trazado_345" data-name="Trazado 345" d="M122.995,19.032H121.7V9.97h1.295v1.664a3.7,3.7,0,0,1,1.48-1.48,4.439,4.439,0,0,1,2.034-.555v1.295H125.4l-1.48.74a3.329,3.329,0,0,0-.925,1.295Z" transform="translate(-68.623 -5.901)" fill="#fff"></path><path id="Trazado_346" data-name="Trazado 346" d="M128.984,19.053h-2.219l-1.664-.74v-1.48a6.473,6.473,0,0,0,3.7,1.11l1.849-.37a1.13,1.13,0,0,0,.185-2.034l-.925-.37h-1.295a6.658,6.658,0,0,1-2.4-1.11,2.034,2.034,0,0,1-.74-1.664,2.219,2.219,0,0,1,.925-1.849,4.623,4.623,0,0,1,2.774-.74,6.1,6.1,0,0,1,3.329.74V11.84a6.288,6.288,0,0,0-3.329-.925l-1.664.37a1.11,1.11,0,0,0-.555.925,1.11,1.11,0,0,0,.74.925h2.034l2.589,1.11a2.034,2.034,0,0,1,.74,1.664,2.219,2.219,0,0,1-1.11,1.849A4.993,4.993,0,0,1,128.984,19.053Z" transform="translate(-65.735 -5.737)" fill="#fff"></path><path id="Trazado_347" data-name="Trazado 347" d="M131.121,9.264a.925.925,0,0,1,0-1.295l.74-.37.74.37a.925.925,0,0,1,0,1.295Zm1.295,11.466h-1.295V11.669h1.295Z" transform="translate(-60.845 -7.6)" fill="#fff"></path><path id="Trazado_348" data-name="Trazado 348" d="M141.436,13.148V7.6h1.295V20.731h-1.295v-1.48a4.514,4.514,0,0,1-6.843.185,5.178,5.178,0,0,1,0-6.843,4.241,4.241,0,0,1,6.843.555Zm0,4.623V14.813a3.329,3.329,0,0,0-1.295-1.48,3.514,3.514,0,0,0-1.849-.555,3.329,3.329,0,0,0-2.589,1.11,3.7,3.7,0,0,0,0,4.993,3.329,3.329,0,0,0,2.589,1.11,3.32,3.32,0,0,0,3.144-2.219Z" transform="translate(-58.768 -7.6)" fill="#fff"></path><path id="Trazado_349" data-name="Trazado 349" d="M143.331,19.053a3.884,3.884,0,0,1-2.4-.74A2.774,2.774,0,0,1,140,16.094a2.589,2.589,0,0,1,1.11-2.219,4.254,4.254,0,0,1,2.589-.74,6.288,6.288,0,0,1,3.329.925v-.925q0-2.219-2.959-2.219a5.178,5.178,0,0,0-2.959.925V10.546a6.1,6.1,0,0,1,3.329-.74,4.623,4.623,0,0,1,2.959.925,2.959,2.959,0,0,1,1.11,2.4v3.7a1.3,1.3,0,0,0,.185.74l.555.37h.555v1.11h-.925l-1.11-.37a1.664,1.664,0,0,1-.555-1.11A4.623,4.623,0,0,1,143.331,19.053Zm.37-1.295,1.849-.37,1.295-1.11V14.984a5.363,5.363,0,0,0-2.959-.925,3.514,3.514,0,0,0-2.034.555,1.48,1.48,0,0,0-.74,1.295,1.664,1.664,0,0,0,.74,1.295,2.959,2.959,0,0,0,1.849.74Z" transform="translate(-53.081 -5.737)" fill="#fff"></path><path id="Trazado_350" data-name="Trazado 350" d="M154.236,13.148V7.6h1.295V20.731h-1.295v-1.48a4.514,4.514,0,0,1-6.843.185,5.178,5.178,0,0,1,0-6.843,4.241,4.241,0,0,1,6.843.555Zm0,4.623V14.813a3.329,3.329,0,0,0-1.295-1.48,3.514,3.514,0,0,0-1.849-.555,3.329,3.329,0,0,0-2.589,1.11,3.7,3.7,0,0,0,0,4.993,3.329,3.329,0,0,0,2.589,1.11,3.32,3.32,0,0,0,3.144-2.219Z" transform="translate(-47.896 -7.6)" fill="#fff"></path><path id="Trazado_351" data-name="Trazado 351" d="M95.034,31.531H93V18.4h2.034l4.254,5.918,4.254-5.918h2.034V31.531h-1.849V21.544l-3.7,4.993H98.733l-3.7-4.993Z" transform="translate(-93 1.573)" fill="#fff"></path><path id="Trazado_352" data-name="Trazado 352" d="M110.364,28.087h.555v1.48l-1.11.37a1.849,1.849,0,0,1-1.849-1.295,4.254,4.254,0,0,1-3.329,1.48,3.7,3.7,0,0,1-2.4-.74,2.774,2.774,0,0,1-.925-2.219,2.589,2.589,0,0,1,1.11-2.219A4.254,4.254,0,0,1,105,24.2a5.918,5.918,0,0,1,2.959.74v-.555q0-2.034-2.774-2.034a5.363,5.363,0,0,0-2.959.74V21.244a6.658,6.658,0,0,1,3.329-.74,4.808,4.808,0,0,1,3.144.925,3.144,3.144,0,0,1,1.11,2.589v3.514a.925.925,0,0,0,.185.74Zm-2.774-1.11v-1.11a4.993,4.993,0,0,0-2.4-.74l-1.664.37a1.11,1.11,0,0,0-.555,1.11,1.3,1.3,0,0,0,.555,1.11l1.48.37,1.48-.37Z" transform="translate(-85.952 3.353)" fill="#fff"></path><path id="Trazado_353" data-name="Trazado 353" d="M108.795,20.789l-.925-.37a1.341,1.341,0,0,1,0-1.849l.925-.37.925.37a1.341,1.341,0,0,1,0,1.849ZM109.9,31.7H107.87V22.454H109.9Z" transform="translate(-80.684 1.403)" fill="#fff"></path><path id="Trazado_354" data-name="Trazado 354" d="M112.434,29.837H110.4V20.59h2.034v1.295a3.514,3.514,0,0,1,3.144-1.48l1.849.37a2.4,2.4,0,0,1,1.11,1.295,3.7,3.7,0,0,1,1.48-1.295l2.034-.37a3.144,3.144,0,0,1,2.4.925,3.884,3.884,0,0,1,.925,2.774v5.733h-2.034V24.473q0-2.219-1.849-2.219l-1.48.37a2.589,2.589,0,0,0-.925,1.11v6.1h-2.034V24.473q0-2.219-1.849-2.219l-1.295.37a2.774,2.774,0,0,0-.925,1.11Z" transform="translate(-78.221 3.267)" fill="#fff"></path><path id="Trazado_355" data-name="Trazado 355" d="M124.555,31.885a4.993,4.993,0,0,1-3.7-1.479,4.808,4.808,0,0,1,0-6.843,5.363,5.363,0,0,1,7.213,0,4.623,4.623,0,0,1,1.48,3.514,4.808,4.808,0,0,1-1.48,3.514A4.994,4.994,0,0,1,124.555,31.885Zm0-1.849a2.959,2.959,0,0,0,2.219-.925,3.144,3.144,0,0,0,0-4.439,2.959,2.959,0,0,0-5.178,2.219,2.959,2.959,0,0,0,3.144,3.144Zm.74-9.247h-1.849L125.3,18.2h2.589Z" transform="translate(-70.553 1.403)" fill="#fff"></path><path id="Trazado_356" data-name="Trazado 356" d="M128.134,23.731v6.1H126.1V20.588h2.034v1.295a4.439,4.439,0,0,1,3.329-1.48,3.144,3.144,0,0,1,2.589,1.11,4.069,4.069,0,0,1,.925,2.774v5.733h-2.034V24.656q0-2.4-2.219-2.4l-1.48.37A3.144,3.144,0,0,0,128.134,23.731Z" transform="translate(-64.885 3.27)" fill="#fff"></path><path id="Trazado_357" data-name="Trazado 357" d="M133.595,20.789l-.925-.37a1.341,1.341,0,0,1,0-1.849l.925-.37.925.37a1.341,1.341,0,0,1,0,1.849ZM134.7,31.7H132.67V22.454H134.7Z" transform="translate(-59.619 1.403)" fill="#fff"></path><path id="Trazado_358" data-name="Trazado 358" d="M139.31,31.716a4.069,4.069,0,0,1-3.144-1.48,5.363,5.363,0,0,1,0-6.843,4.069,4.069,0,0,1,3.144-1.48,3.884,3.884,0,0,1,3.329,1.48V18.4h2.034V31.531h-2.034V30.236a3.884,3.884,0,0,1-3.329,1.48Zm.555-1.849,1.664-.37a3.144,3.144,0,0,0,1.11-1.11V25.428a3.144,3.144,0,0,0-1.11-1.11l-1.664-.37a2.774,2.774,0,0,0-2.219.925,2.959,2.959,0,0,0-.74,2.034,3.144,3.144,0,0,0,.925,2.219,2.774,2.774,0,0,0,2.034.925Z" transform="translate(-57.383 1.573)" fill="#fff"></path><path id="Trazado_359" data-name="Trazado 359" d="M141.3,25.294A4.808,4.808,0,0,1,142.6,21.78a4.623,4.623,0,0,1,3.514-1.48,3.884,3.884,0,0,1,2.4.74,4.808,4.808,0,0,1,2.034,4.254v.555h-7.028a2.589,2.589,0,0,0,1.11,1.849,4.069,4.069,0,0,0,2.4.74,5.733,5.733,0,0,0,2.959-.74v1.664a5.733,5.733,0,0,1-3.329.925,5.178,5.178,0,0,1-3.7-1.295,4.623,4.623,0,0,1-1.664-3.7Zm2.034-.925h4.993a2.219,2.219,0,0,0-2.4-2.219,2.589,2.589,0,0,0-1.849.555,2.4,2.4,0,0,0-.555,1.664Z" transform="translate(-51.977 3.186)" fill="#fff"></path><path id="Trazado_360" data-name="Trazado 360" d="M151.084,30.192a6.843,6.843,0,0,1-3.884-.925V27.417a6.473,6.473,0,0,0,3.7,1.11l1.479-.37a.771.771,0,0,0,0-1.479l-.925-.37-1.11-.37a5.733,5.733,0,0,1-2.4-1.11,2.589,2.589,0,0,1,.37-3.884,4.993,4.993,0,0,1,2.959-.74,6.288,6.288,0,0,1,3.329.74v1.849a6.843,6.843,0,0,0-3.329-.925h-1.48a.74.74,0,0,0-.555.74q0,.37.555.74l.925.37h1.11q3.144.74,3.144,2.959a2.4,2.4,0,0,1-1.11,2.034A4.993,4.993,0,0,1,151.084,30.192Z" transform="translate(-46.963 3.097)" fill="#fff"></path></g><g id="Grupo_14" data-name="Grupo 14"><path id="Trazado_361" data-name="Trazado 361" d="M9.064,8.8A5.548,5.548,0,0,0,5.18,7.5,5.178,5.178,0,0,0,0,12.867a4.993,4.993,0,0,0,3.7,4.808h0a8.507,8.507,0,0,1,3.884,2.219,13.131,13.131,0,0,1,1.849,9.247,1.295,1.295,0,0,0,1.11,1.48,1.48,1.48,0,0,0,1.48-1.11q3.514-12.761-.555-18.494A11.1,11.1,0,0,0,9.064,8.8Z" transform="translate(0.002 6.373)" fill="#fff"></path><g id="Grupo_13" data-name="Grupo 13" transform="translate(17.757)"><path id="Trazado_362" data-name="Trazado 362" d="M86.165,35.069v-17.2a10.726,10.726,0,0,0-2.774-7.582,10.172,10.172,0,0,0-7.767-2.774l-2.4.37-2.774.925-2.219,1.11-2.4,1.48-1.664,1.11a9.617,9.617,0,0,0-9.062-4.993H52.321l-1.48.555-1.295.555-1.295.74-1.295.74-1.48.925-1.295.74V7.883l-.37-.37-13.5,1.849v2.4l2.4.37a1.664,1.664,0,0,1,1.295.74,6.1,6.1,0,0,1,.37,2.589v13.87a10.356,10.356,0,0,1-.555,3.7,5.178,5.178,0,0,1-1.849,2.219,5.733,5.733,0,0,1-3.329.925c-3.7,0-5.178-2.4-5.178-7.213V7.883l-.37-.37L9.6,9.362v2.4l2.4.37a1.664,1.664,0,0,1,1.295.74,6.1,6.1,0,0,1,.37,2.589v16.09q0,5.363,2.774,7.582a10.357,10.357,0,0,0,6.843,2.219,13.87,13.87,0,0,0,3.884-.555l2.589-1.11,2.774-1.48,2.034-1.295.555,3.7H48.807v-2.4a7.952,7.952,0,0,1-3.514-.74q-.74-.555-.74-2.589V20.459a14.24,14.24,0,0,1,.185-3.144A6.288,6.288,0,0,1,46.958,13.8a5.918,5.918,0,0,1,3.7-1.295q4.623,0,4.808,6.288v16.46a2.959,2.959,0,0,1-.555,2.034,2.774,2.774,0,0,1-1.664.555h-1.48v2.589H68.78V38.213H67.3a2.774,2.774,0,0,1-1.664-.555,2.959,2.959,0,0,1-.555-2.034V20.459a14.056,14.056,0,0,1,.185-3.144A6.288,6.288,0,0,1,67.3,13.8a5.363,5.363,0,0,1,3.329-1.11,4.439,4.439,0,0,1,3.7,1.664,7.582,7.582,0,0,1,1.48,4.808v16.46a2.959,2.959,0,0,1-.555,2.034,2.774,2.774,0,0,1-1.664.555h-1.48V40.8H89.863V38.213a7.952,7.952,0,0,1-3.514-.74A8.281,8.281,0,0,1,86.165,35.069Z" transform="translate(-9.6 6.364)" fill="#fff"></path><path id="Trazado_363" data-name="Trazado 363" d="M79.364,10.359a5.363,5.363,0,0,0,3.884-1.48,4.993,4.993,0,0,0,1.48-3.7,4.993,4.993,0,0,0-1.48-3.7A5.363,5.363,0,0,0,79.364,0a5.178,5.178,0,0,0-3.884,1.48A4.993,4.993,0,0,0,74,5.181a5.178,5.178,0,0,0,1.48,3.7A5.178,5.178,0,0,0,79.364,10.359Z" transform="translate(45.099 0.003)" fill="#fff"></path><path id="Trazado_364" data-name="Trazado 364" d="M109.78,35.252a3.884,3.884,0,0,1-2.589,1.11c-3.144,0-4.439-2.034-4.623-6.288V7.881l-.37-.37L88.7,9.36v2.4l2.4.37a1.664,1.664,0,0,1,1.295.74,6.1,6.1,0,0,1,.37,2.589V29.519a10.356,10.356,0,0,1-.555,3.7,5.178,5.178,0,0,1-1.849,2.219,5.733,5.733,0,0,1-3.329.925c-3.7,0-5.178-2.4-5.178-7.213V16.758a17.2,17.2,0,0,0-.185-2.589,8.322,8.322,0,0,0-.925-2.4A6.1,6.1,0,0,0,78.9,9.545a11.1,11.1,0,0,0-3.7-1.48,24.412,24.412,0,0,0-5.733-.555A23.487,23.487,0,0,0,58,9.915q-4.254,2.4-4.254,5.733a3.329,3.329,0,0,0,2.034,3.144,8.507,8.507,0,0,0,3.884,1.11q1.849,0,2.774-2.589,2.219-6.658,5.918-6.658t3.884,4.808v3.514l-1.664.925-2.4,1.11-2.589.925-2.959.925-2.589.925Q53,26.19,53,32.108a9.247,9.247,0,0,0,9.987,9.617l3.144-.555,2.589-1.11,2.774-1.48,1.849-1.11,1.295,1.664a8.137,8.137,0,0,0,6.843,2.774h.185a13.871,13.871,0,0,0,3.884-.555l2.589-1.11,2.774-1.48,2.219-1.48a10.541,10.541,0,0,0,9.432,4.623,16.46,16.46,0,0,0,9.617-4.623ZM71.868,31.923a4.438,4.438,0,0,1-1.295,3.514,4.254,4.254,0,0,1-2.774,1.11,4.623,4.623,0,0,1-3.514-1.479A5.733,5.733,0,0,1,62.806,31,6.1,6.1,0,0,1,65.95,25.08l5.918-2.774Z" transform="translate(27.259 6.365)" fill="#fff"></path></g></g></g></g></g><g id="Rectángulo_67" data-name="Rectángulo 67" transform="translate(157 45)" fill="#fff" stroke="#707070" stroke-width="1" opacity="0"><rect width="280" height="48" stroke="none"></rect><rect x="0.5" y="0.5" width="279" height="47" fill="none"></rect></g></g></svg> 